<mxfile host="app.diagrams.net" modified="2021-07-30T08:26:21.761Z" agent="5.0 (X11; Linux x86_64) AppleWebKit/537.36 (KHTML, like Gecko) Chrome/92.0.4515.107 Safari/537.36" etag="ftnm-nnzb0pXvHRzG8KC" version="14.9.3" type="github">
  <diagram id="piDafpqhtRUU5qUU-vj8" name="Page-1">
    <mxGraphModel dx="1350" dy="1938" grid="1" gridSize="10" guides="1" tooltips="1" connect="1" arrows="1" fold="1" page="1" pageScale="1" pageWidth="827" pageHeight="1169" math="0" shadow="0">
      <root>
        <mxCell id="0" />
        <mxCell id="1" parent="0" />
        <mxCell id="x3bXPSNRKuim9LjTw-3l-4" value="" style="verticalLabelPosition=bottom;verticalAlign=top;html=1;shadow=0;dashed=0;strokeWidth=1;shape=mxgraph.android.phone2;strokeColor=#c0c0c0;" vertex="1" parent="1">
          <mxGeometry x="200" y="-540" width="446.15" height="870" as="geometry" />
        </mxCell>
        <mxCell id="x3bXPSNRKuim9LjTw-3l-10" value="" style="group" vertex="1" connectable="0" parent="1">
          <mxGeometry x="238.08" y="-270" width="370" height="370" as="geometry" />
        </mxCell>
        <mxCell id="x3bXPSNRKuim9LjTw-3l-5" value="" style="verticalLabelPosition=bottom;shadow=0;dashed=0;align=center;html=1;verticalAlign=top;strokeWidth=1;shape=mxgraph.mockup.misc.map;" vertex="1" parent="x3bXPSNRKuim9LjTw-3l-10">
          <mxGeometry width="370" height="370" as="geometry" />
        </mxCell>
        <mxCell id="x3bXPSNRKuim9LjTw-3l-6" value="" style="verticalLabelPosition=top;shadow=0;dashed=0;align=center;html=1;verticalAlign=bottom;strokeWidth=1;shape=mxgraph.mockup.misc.pin;fillColor2=#ccccff;fillColor3=#0000ff;strokeColor=#000066;" vertex="1" parent="x3bXPSNRKuim9LjTw-3l-10">
          <mxGeometry x="165.92" y="130" width="10" height="25" as="geometry" />
        </mxCell>
        <mxCell id="x3bXPSNRKuim9LjTw-3l-7" value="" style="verticalLabelPosition=top;shadow=0;dashed=0;align=center;html=1;verticalAlign=bottom;strokeWidth=1;shape=mxgraph.mockup.misc.pin;fillColor2=#ffff00;fillColor3=#888800;strokeColor=#999900;" vertex="1" parent="x3bXPSNRKuim9LjTw-3l-10">
          <mxGeometry x="151.92" y="90" width="10" height="25" as="geometry" />
        </mxCell>
        <mxCell id="x3bXPSNRKuim9LjTw-3l-8" value="" style="verticalLabelPosition=top;shadow=0;dashed=0;align=center;html=1;verticalAlign=bottom;strokeWidth=1;shape=mxgraph.mockup.misc.pin;fillColor2=#dd0000;fillColor3=#440000;strokeColor=#660000;" vertex="1" parent="x3bXPSNRKuim9LjTw-3l-10">
          <mxGeometry x="131.92" y="40" width="10" height="25" as="geometry" />
        </mxCell>
        <mxCell id="x3bXPSNRKuim9LjTw-3l-9" value="" style="verticalLabelPosition=top;shadow=0;dashed=0;align=center;html=1;verticalAlign=bottom;strokeWidth=1;shape=mxgraph.mockup.misc.pin;fillColor2=#00dd00;fillColor3=#004400;strokeColor=#006600;" vertex="1" parent="x3bXPSNRKuim9LjTw-3l-10">
          <mxGeometry x="179.99999999999997" y="172.5" width="10" height="25" as="geometry" />
        </mxCell>
        <mxCell id="x3bXPSNRKuim9LjTw-3l-11" value="Balance: Php 500.00" style="rounded=1;whiteSpace=wrap;html=1;" vertex="1" parent="1">
          <mxGeometry x="350" y="-440" width="120" height="60" as="geometry" />
        </mxCell>
        <mxCell id="x3bXPSNRKuim9LjTw-3l-12" value="Balance: Php 500.00" style="rounded=1;whiteSpace=wrap;html=1;" vertex="1" parent="1">
          <mxGeometry x="920" y="-430" width="120" height="60" as="geometry" />
        </mxCell>
      </root>
    </mxGraphModel>
  </diagram>
</mxfile>
